<svg width="23" height="28" viewBox="0 0 23 28" fill="none" xmlns="http://www.w3.org/2000/svg">
<path d="M21.7778 0H4.14815C3.04838 0.00126941 1.99402 0.438713 1.21637 1.21637C0.438713 1.99402 0.00126941 3.04838 0 4.14815V26.963C0 27.238 0.109259 27.5018 0.303741 27.6963C0.498223 27.8907 0.761998 28 1.03704 28H19.7037C19.9787 28 20.2425 27.8907 20.437 27.6963C20.6315 27.5018 20.7407 27.238 20.7407 26.963C20.7407 26.6879 20.6315 26.4241 20.437 26.2297C20.2425 26.0352 19.9787 25.9259 19.7037 25.9259H2.07407C2.07469 25.376 2.29341 24.8488 2.68224 24.46C3.07107 24.0712 3.59826 23.8525 4.14815 23.8519H21.7778C22.0528 23.8519 22.3166 23.7426 22.5111 23.5481C22.7056 23.3536 22.8148 23.0899 22.8148 22.8148V1.03704C22.8148 0.761998 22.7056 0.498223 22.5111 0.303741C22.3166 0.109259 22.0528 0 21.7778 0ZM11.4077 2.07407H18.6669V12.4446L15.3474 9.95556C15.2576 9.88824 15.1485 9.85185 15.0363 9.85185C14.9241 9.85185 14.8149 9.88824 14.7251 9.95556L11.4077 12.4443V2.07407Z" fill="#148ECE"/>
</svg>
