<svg width="32" height="32" viewBox="0 0 32 32" fill="none" xmlns="http://www.w3.org/2000/svg">
<path d="M29.5115 19.3381L27.6164 18.1331C27.7428 17.4415 27.8124 16.7294 27.8124 16.0014C27.8124 15.2733 27.7433 14.5621 27.6168 13.8705L29.5115 12.6656C29.9371 12.3944 30.1205 11.7719 29.9166 11.2823L29.1779 9.49915C28.9749 9.00867 28.4051 8.69739 27.9127 8.80706L25.7217 9.29427C24.9068 8.11607 23.8856 7.09489 22.7074 6.28L23.1951 4.08849C23.3043 3.59614 22.9935 3.02633 22.5035 2.82379L20.7199 2.08457C20.2294 1.88017 19.6064 2.06311 19.3357 2.48965L18.1308 4.38436C17.4279 4.25477 16.7147 4.18917 15.9999 4.18836C15.2715 4.18836 14.5598 4.25789 13.8686 4.38389L12.6637 2.48918C12.3926 2.06264 11.7705 1.8797 11.28 2.08317L9.49731 2.82239C9.00684 3.02493 8.6951 3.59521 8.80523 4.08802L9.29244 6.27907C8.1143 7.09368 7.09326 8.11472 6.27866 9.29287L4.08717 8.80566C3.59483 8.69553 3.02502 9.00727 2.82202 9.49681L2.08327 11.28C1.8798 11.7705 2.06274 12.3935 2.48834 12.6642L4.3835 13.8691C4.25432 14.5722 4.18888 15.2856 4.18797 16.0004C4.18797 16.7289 4.2575 17.4401 4.3835 18.1313L2.48834 19.3362C2.06227 19.6074 1.8798 20.2299 2.08327 20.7209L2.82202 22.504C3.02548 22.9936 3.59483 23.3058 4.08717 23.1952L6.27866 22.7075C7.0935 23.8856 8.1145 24.9068 9.29244 25.7218L8.80477 27.9133C8.69463 28.4057 9.00684 28.9755 9.49638 29.178L11.2795 29.9172C11.7705 30.1198 12.3926 29.9378 12.6637 29.5117L13.8686 27.617C14.5603 27.7434 15.2719 27.8125 15.9999 27.8125C16.7279 27.8125 17.4387 27.7434 18.1308 27.617L19.3357 29.5117C19.6064 29.9378 20.2294 30.1198 20.7194 29.9172L22.5021 29.1789C22.9935 28.9755 23.3043 28.4057 23.1942 27.9133L22.707 25.7218C23.8853 24.907 24.9065 23.8858 25.7212 22.7075L27.9122 23.1952C28.4046 23.3053 28.9744 22.9931 29.1774 22.504L29.9161 20.7209C30.1205 20.2309 29.9371 19.6083 29.5115 19.3381ZM12.9866 24.6732L12.0225 24.2742C10.1456 23.3688 8.63128 21.8538 7.72675 19.9765L7.32915 19.017C6.989 18.0479 6.81436 17.0284 6.81254 16.0014C6.81254 14.9406 7.00154 13.9265 7.33195 12.9782L7.72489 12.0295C8.62943 10.1511 10.1443 8.63502 12.022 7.72904L12.9871 7.3291C13.9552 6.98948 14.9735 6.81515 15.9995 6.81342C17.0542 6.81342 18.0636 7.00009 19.0072 7.3277L19.9816 7.73137C21.8534 8.6353 23.3644 10.1458 24.2689 12.0173L24.6745 12.9974C25.0011 13.94 25.1873 14.9476 25.1873 16.0014C25.1873 17.0551 25.0016 18.0631 24.6745 19.0058L24.2689 19.9859C23.3645 21.8575 21.8535 23.368 19.9816 24.2718L19.0072 24.6755C18.0404 25.0139 17.0237 25.1877 15.9995 25.1898C14.9734 25.187 13.955 25.0123 12.9866 24.6732Z" fill="#148ECE"/>
<path d="M23 16C23 12.1341 19.8663 9 16 9C12.1346 9 9 12.1341 9 16C9 19.8659 12.1346 23 16 23C19.8663 23 23 19.8659 23 16ZM12.5 16C12.5 15.0717 12.8687 14.1815 13.5251 13.5251C14.1815 12.8687 15.0717 12.5 16 12.5C16.9283 12.5 17.8185 12.8687 18.4749 13.5251C19.1313 14.1815 19.5 15.0717 19.5 16C19.5 16.9283 19.1313 17.8185 18.4749 18.4749C17.8185 19.1313 16.9283 19.5 16 19.5C15.0717 19.5 14.1815 19.1313 13.5251 18.4749C12.8687 17.8185 12.5 16.9283 12.5 16Z" fill="#148ECE"/>
</svg>

