<svg width="40" height="24" viewBox="0 0 40 24" fill="none" xmlns="http://www.w3.org/2000/svg">
<g opacity="0.5">
<path d="M40 0H0V24H40V0Z" fill="#E30613"/>
<path d="M3.80962 8.69387L4.64295 6.24489L2.61914 4.77551H5.11914L5.83343 2.44897L6.54771 4.77551H9.04771L7.0239 6.24489L7.85724 8.69387L5.83343 7.22448L3.80962 8.69387Z" fill="#F7DE29"/>
<path d="M10.7143 9.91837L11.4285 10.2857L12.0238 9.55103V10.5306L12.8571 10.898L11.9047 11.1429V12L11.4285 11.2653L10.5952 11.3878L11.0714 10.7755L10.7143 9.91837Z" fill="#F7DE29"/>
<path d="M15.1191 5.38775L14.2857 5.2653L13.8096 5.99999L13.6905 5.14285L12.8572 4.89795L13.5715 4.5306L13.4524 3.67346L14.1667 4.28571L14.881 3.91836L14.5238 4.65305L15.1191 5.38775Z" fill="#F7DE29"/>
<path d="M13.2143 9.42857L13.5715 8.57143L12.8572 8.08163H13.6905L13.9286 7.22449L14.2857 8.08163H15.1191L14.4048 8.57143L14.6429 9.42857L13.9286 8.93877L13.2143 9.42857Z" fill="#F7DE29"/>
<path d="M10.7144 1.46939L11.5477 1.95918L12.143 1.22449L12.0239 2.20408L12.8573 2.57143L11.9049 2.69388L11.7858 3.67347L11.4287 2.81632L10.4763 2.93877L11.0716 2.32653L10.7144 1.46939Z" fill="#F7DE29"/>
</g>
</svg>
