<svg width="28" height="28" viewBox="0 0 28 28" fill="none" xmlns="http://www.w3.org/2000/svg">
<path d="M12.6 14H9.548C10.668 14.7 11.69 15.498 12.6 16.352V14ZM7 12.6C7.378 5.432 10.318 0 14 0C17.724 0 20.678 5.516 21 12.768C23.1 11.802 25.438 11.2 28 11.2C19.95 14.798 22.75 28 14 28C5.6 28 8.302 14.798 0 11.2C2.548 11.2 4.9 11.76 7 12.6ZM12.6 12.6V9.8H8.736L8.442 12.6H12.6ZM12.6 8.4V5.6H9.87C9.52 6.44 9.24 7.378 9.002 8.4H12.6ZM12.6 4.2V1.82C11.83 2.282 11.13 3.108 10.5 4.2H12.6ZM14 1.4V4.2H15.4V5.6H14V8.4H16.8V9.8H14V12.6H18.2V14H14V16.8H16.8V18.2H14.322C15.988 20.23 17.01 22.4 17.248 24.122C18.634 21.784 19.544 17.976 19.6 13.664C19.516 7 16.982 1.4 14 1.4Z" fill="#148ECE"/>
</svg>
