<svg width="40" height="24" viewBox="0 0 40 24" fill="none" xmlns="http://www.w3.org/2000/svg">
<g opacity="0.5">
<path d="M39.9998 0H0V24H39.9998V0Z" fill="white"/>
<path d="M26.7857 8.69388L39.9999 1.10204V0H39.0475L24.0476 8.69388H26.7857Z" fill="#BD0034"/>
<path d="M26.0713 15.7959L39.9998 23.7551V22.1632L28.9284 15.7959H26.0713Z" fill="#BD0034"/>
<path d="M0 1.83671L11.7856 8.69385H14.6428L0 0.244873V1.83671Z" fill="#BD0034"/>
<path d="M13.9285 15.7959L0 23.8775V24H2.49999L16.7856 15.7959H13.9285Z" fill="#BD0034"/>
<path d="M37.2617 0H23.2141V8.08163L37.2617 0Z" fill="#1A237B"/>
<path d="M17.0235 0H3.09497L17.0235 8.08163V0Z" fill="#1A237B"/>
<path d="M39.9996 8.69392V3.18372L30.4758 8.69392H39.9996Z" fill="#1A237B"/>
<path d="M39.9996 21.1837V15.7959H30.4758L39.9996 21.1837Z" fill="#1A237B"/>
<path d="M3.92847 24H17.0236V16.4082L3.92847 24Z" fill="#1A237B"/>
<path d="M23.2141 24H36.4283L23.2141 16.4082V24Z" fill="#1A237B"/>
<path d="M0 15.7959V21.4286L9.76185 15.7959H0Z" fill="#1A237B"/>
<path d="M0 8.69382H9.76185L0 2.93872V8.69382Z" fill="#1A237B"/>
<path d="M18.3332 0V10.0408H0V14.3265H18.3332V24H22.0237V14.3265H39.9998V10.0408H22.0237V0H18.3332Z" fill="#BD0034"/>
</g>
</svg>
