<svg width="27" height="15" viewBox="0 0 27 15" fill="none" xmlns="http://www.w3.org/2000/svg">
<path d="M27 0H0V15H27V0Z" fill="white"/>
<path d="M18.0806 5.43367L27.0003 0.688775V0H26.3574L16.2324 5.43367H18.0806Z" fill="#BD0034"/>
<path d="M17.5981 9.87256L26.9999 14.847V13.8522L19.5267 9.87256H17.5981Z" fill="#BD0034"/>
<path d="M0 1.14797L7.95536 5.43369H9.88393L0 0.153076V1.14797Z" fill="#BD0034"/>
<path d="M9.40179 9.87256L0 14.9236V15.0001H1.6875L11.3304 9.87256H9.40179Z" fill="#BD0034"/>
<path d="M25.1516 0H15.6694V5.05102L25.1516 0Z" fill="#1A237B"/>
<path d="M11.4911 0H2.08936L11.4911 5.05102V0Z" fill="#1A237B"/>
<path d="M26.9999 5.43362V1.98975L20.5713 5.43362H26.9999Z" fill="#1A237B"/>
<path d="M26.9999 13.2399V9.87256H20.5713L26.9999 13.2399Z" fill="#1A237B"/>
<path d="M2.65186 15H11.4911V10.2551L2.65186 15Z" fill="#1A237B"/>
<path d="M15.6694 15H24.5891L15.6694 10.2551V15Z" fill="#1A237B"/>
<path d="M0 9.87256V13.393L6.58929 9.87256H0Z" fill="#1A237B"/>
<path d="M0 5.43361H6.58929L0 1.83667V5.43361Z" fill="#1A237B"/>
<path d="M12.375 0V6.27551H0V8.95408H12.375V15H14.8661V8.95408H27V6.27551H14.8661V0H12.375Z" fill="#BD0034"/>
</svg>
