<svg width="28" height="23" viewBox="0 0 28 23" fill="none" xmlns="http://www.w3.org/2000/svg">
<path d="M14 11.2L3.556 7.028L4.2 22.4H1.4L2.072 6.426L0 5.6L14 0L28 5.6L14 11.2ZM14 4.2C13.23 4.2 12.6 4.508 12.6 4.9C12.6 5.292 13.23 5.6 14 5.6C14.77 5.6 15.4 5.292 15.4 4.9C15.4 4.508 14.77 4.2 14 4.2ZM14 12.6L21.798 9.478C22.792 10.794 23.478 12.376 23.702 14.098C23.282 14.042 22.848 14 22.4 14C18.83 14 15.708 15.918 14 18.774C13.133 17.3191 11.9031 16.1142 10.4307 15.2773C8.9582 14.4405 7.29366 14.0003 5.6 14C5.152 14 4.718 14.042 4.298 14.098C4.522 12.376 5.208 10.794 6.202 9.478L14 12.6Z" fill="#148ECE"/>
</svg>
