<svg width="28" height="24" viewBox="0 0 28 24" fill="none" xmlns="http://www.w3.org/2000/svg">
<path d="M7.7 0C5.65783 0 3.69931 0.811248 2.25528 2.25528C0.811248 3.69931 0 5.65783 0 7.7C0 8.4 0.126 9.1 0.308 9.8H6.02L7.798 5.082C8.218 3.962 9.87 3.85 10.402 5.082L13.3 12.6L14.126 10.612C14.308 10.15 14.798 9.8 15.4 9.8H27.692C27.874 9.1 28 8.4 28 7.7C28 5.65783 27.1888 3.69931 25.7447 2.25528C24.3007 0.811248 22.3422 0 20.3 0C17.696 0 15.4 1.302 14 3.276C12.6 1.302 10.304 0 7.7 0ZM1.4 11.9C1.0287 11.9 0.672601 12.0475 0.41005 12.31C0.1475 12.5726 0 12.9287 0 13.3C0 13.6713 0.1475 14.0274 0.41005 14.2899C0.672601 14.5525 1.0287 14.7 1.4 14.7H4.816L12.6 22.4C14 23.66 14 23.66 15.4 22.4L23.184 14.7H26.6C26.9713 14.7 27.3274 14.5525 27.59 14.2899C27.8525 14.0274 28 13.6713 28 13.3C28 12.9287 27.8525 12.5726 27.59 12.31C27.3274 12.0475 26.9713 11.9 26.6 11.9H15.96L14.658 15.12C14.098 16.534 12.488 16.338 11.97 15.162L9.1 7.7L7.756 10.962C7.546 11.494 7.07 11.9 6.44 11.9H1.4Z" fill="#148ECE"/>
</svg>
