<svg width="122" height="80" viewBox="0 0 122 80" fill="none" xmlns="http://www.w3.org/2000/svg">
<path d="M0 0V80H122V0H0Z" fill="#E30613"/>
<path d="M92.704 22.0779C99.4168 22.0779 104.26 22.3752 107.872 24.754C111.993 27.515 113.905 32.2726 113.905 39.5363C113.905 46.9699 112.12 51.7699 107.872 54.6159C104.345 56.9522 99.7992 57.377 93.6387 57.377H82.1675V22.1204H92.704V22.0779ZM93.6812 18.1274H82.0826L77.834 22.3752V61.5398H93.6812C101.414 61.5398 107.022 61.0726 111.44 57.5894C116.284 53.8938 118.45 48.0743 118.45 39.8336C118.45 31.5929 116.284 25.7735 111.44 22.0779C106.979 18.5947 101.371 18.1274 93.6812 18.1274Z" fill="#FCFFFF"/>
<path d="M5.7356 61.4973H10.0692V40.3434H38.3223V61.4973H42.6558V18.1274H38.3223V36.223H10.0692V18.1274L5.7356 22.4602V61.4973Z" fill="#FCFFFF"/>
<path d="M46.7344 36.1379H73.4155V40.3008H46.7344V36.1379Z" fill="#FCFFFF"/>
<path d="M51.2806 18H73.7981V22.2053H47.1169V22.1628L51.2806 18Z" fill="#FCFFFF"/>
<path d="M47.2019 57.377H73.8405V61.5398H47.2019V57.377Z" fill="#FCFFFF"/>
</svg>
