<svg width="16" height="12" viewBox="0 0 16 12" fill="none" xmlns="http://www.w3.org/2000/svg">
<path d="M15.9992 0.58575C15.999 0.5746 15.9984 0.5635 15.9975 0.55245C15.9968 0.54345 15.9959 0.5345 15.9948 0.5256C15.991 0.495946 15.9849 0.466613 15.9766 0.43785C15.974 0.428612 15.9712 0.419435 15.9682 0.410325C15.9649 0.40089 15.9613 0.391537 15.9575 0.382275C15.9541 0.373414 15.9504 0.364636 15.9465 0.35595C15.9297 0.320029 15.9096 0.285706 15.8863 0.253425C15.8744 0.237068 15.8616 0.221298 15.8481 0.206175C15.8447 0.20235 15.8418 0.1983 15.8382 0.19455C15.8353 0.1914 15.8321 0.188775 15.829 0.1857C15.8215 0.178128 15.8139 0.17075 15.806 0.163575C15.7988 0.156907 15.7915 0.150405 15.784 0.144075C15.7766 0.137939 15.769 0.131987 15.7612 0.126225C15.7529 0.119829 15.7445 0.113651 15.7358 0.1077C15.7283 0.1026 15.7205 0.0978751 15.7128 0.0930751C15.7037 0.0873825 15.6945 0.0819304 15.6852 0.0767249C15.6769 0.0722249 15.6685 0.068175 15.6601 0.0639751C15.6508 0.059475 15.6416 0.054975 15.6323 0.051C15.6231 0.047025 15.6135 0.0435001 15.604 0.0399751C15.595 0.0366001 15.5861 0.033225 15.577 0.0303C15.567 0.0270749 15.5567 0.0244501 15.5465 0.0216751C15.5375 0.0192751 15.5285 0.0168751 15.5193 0.0149251C15.5091 0.0127711 15.4988 0.0108704 15.4885 0.00922508C15.4788 0.00754874 15.4691 0.00609814 15.4594 0.0048749C15.4495 0.00376694 15.4397 0.00289169 15.4298 0.00224991C15.4191 0.0014505 15.4083 0.000925329 15.3976 0.000674915C15.3932 0.000524915 15.389 0 15.3846 0H0.615385C0.611231 0 0.607308 0.000524957 0.603077 0.000599957C0.591756 0.00084904 0.580444 0.0013992 0.569154 0.00224991C0.559769 0.00299991 0.550539 0.00374998 0.541308 0.00472498C0.530986 0.00601257 0.5207 0.00756312 0.510462 0.009375C0.500615 0.011025 0.490846 0.0125999 0.481231 0.0147749C0.471539 0.0168749 0.462 0.0194249 0.452385 0.0219749C0.442692 0.0245999 0.433 0.02715 0.423461 0.030225C0.413846 0.033225 0.404385 0.0368249 0.394923 0.0403499C0.385923 0.0437249 0.376923 0.0470249 0.368154 0.0507749C0.358308 0.0549749 0.348769 0.0597001 0.339154 0.0644251C0.331077 0.0684001 0.323 0.072225 0.315154 0.0765C0.305538 0.08175 0.296154 0.0875249 0.286692 0.0933749C0.279231 0.0980249 0.271615 0.1026 0.264385 0.107625C0.255538 0.11355 0.247 0.119925 0.238462 0.126375C0.23088 0.132073 0.223442 0.137949 0.216154 0.144C0.208556 0.150398 0.201118 0.156975 0.193846 0.163725C0.186 0.17085 0.178462 0.178125 0.171 0.185625C0.168 0.1887 0.164692 0.1914 0.161769 0.194625C0.158231 0.198375 0.155308 0.20235 0.151923 0.2061C0.138413 0.221246 0.125655 0.237014 0.113692 0.25335C0.0551385 0.334029 0.0178857 0.427538 0.00523083 0.5256C0.00410263 0.5345 0.00317946 0.54345 0.00246151 0.55245C0.00158971 0.56355 0.00102566 0.574625 0.000769248 0.585675C0.000615402 0.590475 0 0.5952 0 0.6V10.8C0.000366478 11.1182 0.130154 11.4232 0.360889 11.6481C0.591623 11.8731 0.904461 11.9996 1.23077 12H14.7692C15.0955 11.9996 15.4084 11.8731 15.6391 11.6481C15.8698 11.4232 15.9996 11.1182 16 10.8V0.6C16 0.5952 15.9994 0.590475 15.9992 0.58575ZM1.23077 1.96387L5.74662 6L1.23077 10.036V1.96387ZM8.934 5.5512L8.93354 5.55158L8 6.38603L2.19746 1.2H13.8025L8.934 5.5512ZM6.65738 6.8139L7.58415 7.6422C7.69766 7.74363 7.84603 7.79989 8 7.79989C8.15397 7.79989 8.30234 7.74363 8.41585 7.6422L9.34269 6.8139L13.8025 10.8H2.19746L6.65738 6.8139ZM10.2534 6L14.7694 1.96387L14.7699 10.0367L10.2534 6Z" fill="#191919"/>
</svg>