<svg width="29" height="28" viewBox="0 0 29 28" fill="none" xmlns="http://www.w3.org/2000/svg">
<path d="M8.59721 24.489C7.04084 23.9158 5.65583 22.9561 4.57238 21.7003C3.48894 20.4445 2.74268 18.9338 2.40374 17.3102L0.0671178 6.31683C-0.270708 4.79661 0.700541 3.30455 2.22076 2.9808L15.9731 0.0670559L16.0153 0.0529798C17.5214 -0.242618 18.9994 0.728631 19.3091 2.22069L19.8018 4.5714L25.9248 5.88047H25.9671C27.4451 6.2183 28.4022 7.71036 28.0926 9.20242L25.7559 20.2099C25.4862 21.4744 24.9701 22.6733 24.2369 23.7383C23.5038 24.8032 22.568 25.7133 21.4831 26.4166C20.3982 27.1198 19.1854 27.6024 17.9139 27.8368C16.6424 28.0713 15.3372 28.0529 14.0728 27.7828C11.9278 27.3352 9.99778 26.1742 8.59721 24.489ZM25.3337 8.6253L11.5813 5.69748L9.24471 16.705V16.7472C8.44238 20.5196 10.8775 24.2357 14.664 25.038C18.4505 25.8403 22.1947 23.4192 22.997 19.6328L25.3337 8.6253ZM19.7032 20.3366C19.2585 21.0894 18.5884 21.6834 17.7877 22.0345C16.987 22.3856 16.0961 22.4761 15.2411 22.2932C14.3888 22.1108 13.6147 21.6669 13.0267 21.0234C12.4388 20.38 12.0664 19.569 11.9614 18.7038L19.7032 20.3366ZM9.10395 4.38841L2.81195 5.73971L5.14858 16.7331L5.16265 16.7753C5.37379 17.7747 5.79608 18.6756 6.3732 19.4498C6.23243 18.3659 6.26059 17.2399 6.49988 16.1138L7.10515 13.2986C6.47173 13.1859 5.92276 12.834 5.62716 12.3273C5.71162 11.4687 6.41542 10.7086 7.38667 10.4833H7.73857L8.83651 5.12036C8.89281 4.85292 8.97727 4.61363 9.10395 4.38841ZM18.3379 14.3261C18.7883 13.5801 19.7455 13.1859 20.7167 13.3971C21.688 13.5942 22.3918 14.3402 22.5184 15.2129C22.0539 15.9449 21.1108 16.339 20.1255 16.1138C19.1543 15.9308 18.4505 15.1847 18.3379 14.3261ZM11.4687 12.8622C11.9192 12.1162 12.8623 11.722 13.8335 11.9332C14.7766 12.1302 15.5226 12.8904 15.6352 13.749C15.1707 14.4809 14.2276 14.8892 13.2564 14.7062C12.2851 14.4669 11.5813 13.7208 11.4687 12.8622ZM14.0306 3.34678L16.7895 3.93797L16.5643 2.81189L14.0306 3.34678Z" fill="#148ECE"/>
</svg>
