<svg width="28" height="19" viewBox="0 0 28 19" fill="none" xmlns="http://www.w3.org/2000/svg">
<path d="M14.0506 12.6763C15.1775 11.7279 15.9856 10.4559 16.3652 9.03273C16.7449 7.60959 16.6778 6.10413 16.173 4.72042C15.6682 3.3367 14.7502 2.14166 13.5434 1.29727C12.3365 0.452888 10.8992 0 9.42631 0C7.9534 0 6.51611 0.452888 5.30926 1.29727C4.10242 2.14166 3.18439 3.3367 2.67961 4.72042C2.17484 6.10413 2.10773 7.60959 2.48739 9.03273C2.86704 10.4559 3.6751 11.7279 4.80203 12.6763C2.97425 13.503 1.40101 14.8038 0.245534 16.4437C0.14373 16.5883 0.0714028 16.7515 0.0326806 16.924C-0.0060415 17.0966 -0.0103999 17.2751 0.0198542 17.4493C0.0501084 17.6235 0.114383 17.7901 0.209007 17.9395C0.303632 18.0889 0.426753 18.2181 0.571343 18.3199C0.863354 18.5255 1.22508 18.6067 1.57694 18.5456C1.92881 18.4845 2.24199 18.2861 2.44759 17.9941C3.23463 16.8744 4.27955 15.9605 5.49413 15.3295C6.7087 14.6986 8.05727 14.3692 9.42594 14.3692C10.7946 14.3691 12.1432 14.6984 13.3578 15.3292C14.5725 15.96 15.6175 16.8739 16.4046 17.9936C16.5064 18.1382 16.6357 18.2613 16.7851 18.3559C16.9345 18.4505 17.101 18.5148 17.2753 18.545C17.4495 18.5753 17.628 18.5709 17.8005 18.5322C17.9731 18.4935 18.1363 18.4211 18.2809 18.3193C18.4255 18.2175 18.5486 18.0882 18.6432 17.9388C18.7378 17.7894 18.8021 17.6229 18.8324 17.4486C18.8626 17.2744 18.8582 17.0959 18.8195 16.9234C18.7808 16.7508 18.7085 16.5876 18.6066 16.443C17.4512 14.8035 15.8781 13.5029 14.0506 12.6763ZM4.93781 7.18751C4.93781 6.29977 5.20106 5.43196 5.69426 4.69383C6.18746 3.9557 6.88847 3.3804 7.70864 3.04068C8.5288 2.70095 9.43129 2.61207 10.302 2.78526C11.1727 2.95845 11.9724 3.38593 12.6002 4.01366C13.2279 4.64139 13.6554 5.44116 13.8286 6.31185C14.0018 7.18253 13.9129 8.08502 13.5731 8.90519C13.2334 9.72535 12.6581 10.4264 11.92 10.9196C11.1819 11.4128 10.3141 11.676 9.42631 11.676C8.2363 11.6747 7.09541 11.2014 6.25394 10.3599C5.41247 9.51842 4.93915 8.37753 4.93781 7.18751ZM27.4288 18.3193C27.2842 18.4212 27.121 18.4935 26.9484 18.5323C26.7759 18.571 26.5974 18.5754 26.4231 18.5452C26.2489 18.5149 26.0823 18.4506 25.9329 18.356C25.7836 18.2613 25.6543 18.1382 25.5525 17.9936C24.7644 16.8749 23.7192 15.9618 22.5049 15.3311C21.2905 14.7004 19.9425 14.3705 18.5741 14.3691C18.217 14.3691 17.8745 14.2272 17.6219 13.9747C17.3694 13.7222 17.2275 13.3797 17.2275 13.0226C17.2275 12.6654 17.3694 12.3229 17.6219 12.0704C17.8745 11.8179 18.217 11.676 18.5741 11.676C19.215 11.6752 19.8484 11.5372 20.4315 11.2712C21.0147 11.0052 21.5341 10.6174 21.9548 10.1339C22.3755 9.65037 22.6878 9.08235 22.8707 8.46804C23.0535 7.85374 23.1027 7.2074 23.0149 6.5725C22.9271 5.9376 22.7043 5.32888 22.3615 4.78728C22.0188 4.24568 21.564 3.78376 21.0278 3.43261C20.4917 3.08145 19.8865 2.8492 19.253 2.75149C18.6196 2.65377 17.9726 2.69285 17.3555 2.8661C17.0117 2.9628 16.6435 2.91898 16.3321 2.74426C16.0206 2.56954 15.7913 2.27825 15.6946 1.93445C15.5979 1.59066 15.6417 1.22253 15.8164 0.911045C15.9911 0.599563 16.2824 0.370245 16.6262 0.273538C18.206 -0.172456 19.8909 -0.0636039 21.4001 0.581954C22.9093 1.22751 24.1518 2.37078 24.9203 3.82125C25.6889 5.27171 25.9372 6.94176 25.6239 8.55308C25.3105 10.1644 24.4544 11.6197 23.1983 12.6764C25.0258 13.503 26.5989 14.8035 27.7544 16.443C27.96 16.735 28.0412 17.0967 27.9802 17.4486C27.9191 17.8004 27.7208 18.1136 27.4288 18.3192V18.3193Z" fill="#148ECE"/>
</svg>
