<svg width="28" height="27" viewBox="0 0 28 27" fill="none" xmlns="http://www.w3.org/2000/svg">
<path d="M12.32 20.7103C12.32 21.1559 12.143 21.5832 11.8279 21.8983C11.5129 22.2133 11.0856 22.3903 10.64 22.3903H7.84V25.1903C7.84 25.6359 7.663 26.0632 7.34794 26.3783C7.03288 26.6933 6.60556 26.8703 6.16 26.8703C5.71444 26.8703 5.28712 26.6933 4.97206 26.3783C4.657 26.0632 4.48 25.6359 4.48 25.1903V22.3903H1.68C1.23444 22.3903 0.807122 22.2133 0.492061 21.8983C0.177 21.5832 0 21.1559 0 20.7103C0 20.2648 0.177 19.8374 0.492061 19.5224C0.807122 19.2073 1.23444 19.0303 1.68 19.0303H4.48V16.2303C4.48 15.7848 4.657 15.3574 4.97206 15.0424C5.28712 14.7273 5.71444 14.5503 6.16 14.5503C6.60556 14.5503 7.03288 14.7273 7.34794 15.0424C7.663 15.3574 7.84 15.7848 7.84 16.2303V19.0303H10.64C11.0856 19.0303 11.5129 19.2073 11.8279 19.5224C12.143 19.8374 12.32 20.2648 12.32 20.7103ZM10.64 3.35033H1.68C1.23444 3.35033 0.807122 3.52732 0.492061 3.84239C0.177 4.15745 0 4.58476 0 5.03032C0 5.47589 0.177 5.9032 0.492061 6.21826C0.807122 6.53333 1.23444 6.71032 1.68 6.71032H10.64C11.0856 6.71032 11.5129 6.53333 11.8279 6.21826C12.143 5.9032 12.32 5.47589 12.32 5.03032C12.32 4.58476 12.143 4.15745 11.8279 3.84239C11.5129 3.52732 11.0856 3.35033 10.64 3.35033ZM17.36 19.5996H26.32C26.7656 19.5996 27.1929 19.4226 27.5079 19.1075C27.823 18.7924 28 18.3651 28 17.9196C28 17.474 27.823 17.0467 27.5079 16.7316C27.1929 16.4166 26.7656 16.2396 26.32 16.2396H17.36C16.9144 16.2396 16.4871 16.4166 16.1721 16.7316C15.857 17.0467 15.68 17.474 15.68 17.9196C15.68 18.3651 15.857 18.7924 16.1721 19.1075C16.4871 19.4226 16.9144 19.5996 17.36 19.5996ZM26.32 21.8211H17.36C16.9144 21.8211 16.4871 21.9981 16.1721 22.3131C15.857 22.6282 15.68 23.0555 15.68 23.5011C15.68 23.9466 15.857 24.374 16.1721 24.689C16.4871 25.0041 16.9144 25.1811 17.36 25.1811H26.32C26.7656 25.1811 27.1929 25.0041 27.5079 24.689C27.823 24.374 28 23.9466 28 23.5011C28 23.0555 27.823 22.6282 27.5079 22.3131C27.1929 21.9981 26.7656 21.8211 26.32 21.8211ZM17.2921 9.57823C17.6072 9.89326 18.0345 10.0702 18.48 10.0702C18.9255 10.0702 19.3528 9.89326 19.6679 9.57823L21.84 7.40626L24.0121 9.57823C24.328 9.88905 24.754 10.0624 25.1972 10.0606C25.6404 10.0588 26.0649 9.88198 26.3783 9.56859C26.6917 9.25521 26.8685 8.83068 26.8703 8.38749C26.8721 7.9443 26.6987 7.51835 26.3879 7.20242L24.2159 5.03032L26.3879 2.85823C26.6987 2.5423 26.8721 2.11635 26.8703 1.67316C26.8685 1.22997 26.6917 0.805446 26.3783 0.49206C26.0649 0.178675 25.6404 0.00181857 25.1972 1.39466e-05C24.754 -0.00179068 24.328 0.171603 24.0121 0.482425L21.84 2.65439L19.6679 0.482425C19.352 0.171603 18.926 -0.00179068 18.4828 1.39466e-05C18.0396 0.00181857 17.6151 0.178675 17.3017 0.49206C16.9883 0.805446 16.8115 1.22997 16.8097 1.67316C16.8079 2.11635 16.9813 2.5423 17.2921 2.85823L19.4641 5.03032L17.2921 7.20242C16.9771 7.51748 16.8001 7.94478 16.8001 8.39032C16.8001 8.83587 16.9771 9.26317 17.2921 9.57823Z" fill="#148ECE"/>
</svg>
