<svg width="18" height="18" viewBox="0 0 18 18" fill="none" xmlns="http://www.w3.org/2000/svg">
<path d="M11.7626 0H6.23737C1.19528 0 0 1.19528 0 6.23737V11.7626C0 16.8047 1.19528 18 6.23737 18H11.7626C16.8047 18 18 16.8047 18 11.7626V6.23737C18 1.19528 16.7929 0 11.7626 0ZM14.5312 12.8403H13.2245C12.7295 12.8403 12.5771 12.4477 11.6867 11.5455C10.9133 10.7957 10.5707 10.6962 10.38 10.6962C10.1106 10.6962 10.0341 10.7721 10.0341 11.1417V12.3223C10.0341 12.639 9.93456 12.8291 9.09647 12.8291C7.71051 12.8291 6.17268 11.991 5.0944 10.4295C3.46827 8.14137 3.02334 6.42749 3.02334 6.07312C3.02334 5.88244 3.09928 5.70413 3.46545 5.70413H4.77491C5.10622 5.70413 5.23221 5.85657 5.36102 6.21093C6.00844 8.08006 7.08672 9.71745 7.53164 9.71745C7.69588 9.71745 7.77182 9.64151 7.77182 9.22246V7.29202C7.72176 6.40161 7.25321 6.32511 7.25321 6.009C7.25321 5.85657 7.37921 5.70413 7.58114 5.70413H9.64039C9.91881 5.70413 10.0212 5.85657 10.0212 6.18449V8.78879C10.0212 9.07003 10.1472 9.16959 10.2231 9.16959C10.3874 9.16959 10.528 9.07003 10.8323 8.76516C11.7728 7.71051 12.4466 6.08437 12.4466 6.08437C12.5344 5.89369 12.6868 5.71538 13.0181 5.71538H14.3276C14.7202 5.71538 14.8079 5.91732 14.7202 6.19856C14.5559 6.96016 12.9534 9.2219 12.9534 9.2219C12.8156 9.45027 12.7627 9.54983 12.9534 9.80463C13.094 9.99531 13.5513 10.3907 13.8556 10.7451C14.4153 11.3807 14.8456 11.9139 14.9603 12.2829C15.0892 12.6491 14.899 12.8398 14.5295 12.8398L14.5312 12.8403Z" fill="#148ECE"/>
</svg>
