<svg width="16" height="16" viewBox="0 0 16 16" fill="none" xmlns="http://www.w3.org/2000/svg">
<path d="M0 16L1.12941 11.7647C0.470588 10.6353 0.0941176 9.31765 0.0941176 7.90588C0.188235 3.57647 3.67059 0 8.09412 0C12.4235 0 16 3.57647 16 7.90588C16 12.2353 12.4235 15.8118 8.09412 15.8118C6.77647 15.8118 5.45882 15.4353 4.32941 14.8706L0 16ZM4.51765 13.2706L4.8 13.4588C5.83529 14.0235 6.96471 14.4 8.09412 14.4C11.6706 14.4 14.4941 11.4824 14.4941 8C14.4941 4.51765 11.5765 1.6 8.09412 1.6C4.51765 1.6 1.69412 4.51765 1.69412 8C1.69412 9.12941 1.97647 10.3529 2.63529 11.2941L2.82353 11.5765L2.16471 13.9294L4.51765 13.2706ZM11.0118 9.03529C10.7294 8.84706 10.2588 8.65882 9.88235 8.75294C9.6 8.84706 9.41177 9.31765 9.22353 9.6C9.12941 9.69412 9.03529 9.69412 8.84706 9.69412C7.71765 9.22353 6.87059 8.47059 6.30588 7.43529C6.21176 7.24706 6.21176 7.15294 6.30588 6.96471C6.49412 6.77647 6.68235 6.58824 6.77647 6.30588C6.87059 5.92941 6.68235 5.64706 6.58824 5.36471C6.4 5.08235 6.21176 4.61176 5.92941 4.42353C5.64706 4.23529 5.17647 4.32941 4.89412 4.51765C4.42353 4.89412 4.23529 5.45882 4.23529 6.11765C4.23529 6.30588 4.23529 6.49412 4.32941 6.58824C4.42353 6.96471 4.61176 7.34118 4.8 7.71765C4.89412 8 5.08235 8.18824 5.27059 8.47059C5.83529 9.31765 6.58824 9.97647 7.43529 10.4471C7.90588 10.7294 8.28235 10.9176 8.75294 11.1059C9.31765 11.2941 9.78824 11.4824 10.3529 11.3882C10.9176 11.2941 11.5765 10.9176 11.7647 10.3529C11.8588 10.1647 11.8588 9.97647 11.8588 9.78823C11.7647 9.41176 11.2941 9.22353 11.0118 9.03529Z" fill="#191919"/>
</svg>